<svg width="90" height="68" viewBox="0 0 90 68" fill="none" xmlns="http://www.w3.org/2000/svg">
<path d="M4.99984 -8.82519e-05C4.46979 -0.00758444 3.94354 0.0903408 3.45167 0.287996C2.9598 0.485651 2.51211 0.779093 2.13463 1.15127C1.75715 1.52345 1.45741 1.96694 1.25282 2.45597C1.04823 2.945 0.942871 3.46981 0.942871 3.99991C0.942871 4.53001 1.04823 5.05483 1.25282 5.54386C1.45741 6.03288 1.75715 6.47637 2.13463 6.84855C2.51211 7.22073 2.9598 7.51417 3.45167 7.71183C3.94354 7.90948 4.46979 8.00741 4.99984 7.99991H84.9998C85.5299 8.00741 86.0561 7.90948 86.548 7.71183C87.0399 7.51417 87.4876 7.22073 87.8651 6.84855C88.2425 6.47637 88.5423 6.03288 88.7469 5.54386C88.9515 5.05483 89.0568 4.53001 89.0568 3.99991C89.0568 3.46981 88.9515 2.945 88.7469 2.45597C88.5423 1.96694 88.2425 1.52345 87.8651 1.15127C87.4876 0.779093 87.0399 0.485651 86.548 0.287996C86.0561 0.0903408 85.5299 -0.00758444 84.9998 -8.82519e-05H4.99984ZM4.99984 29.9999C4.46979 29.9924 3.94354 30.0903 3.45167 30.288C2.9598 30.4856 2.51211 30.7791 2.13463 31.1513C1.75715 31.5234 1.45741 31.9669 1.25282 32.456C1.04823 32.945 0.942871 33.4698 0.942871 33.9999C0.942871 34.53 1.04823 35.0548 1.25282 35.5439C1.45741 36.0329 1.75715 36.4764 2.13463 36.8486C2.51211 37.2207 2.9598 37.5142 3.45167 37.7118C3.94354 37.9095 4.46979 38.0074 4.99984 37.9999H84.9998C85.5299 38.0074 86.0561 37.9095 86.548 37.7118C87.0399 37.5142 87.4876 37.2207 87.8651 36.8486C88.2425 36.4764 88.5423 36.0329 88.7469 35.5439C88.9515 35.0548 89.0568 34.53 89.0568 33.9999C89.0568 33.4698 88.9515 32.945 88.7469 32.456C88.5423 31.9669 88.2425 31.5234 87.8651 31.1513C87.4876 30.7791 87.0399 30.4856 86.548 30.288C86.0561 30.0903 85.5299 29.9924 84.9998 29.9999H4.99984ZM4.99984 59.9999C4.46979 59.9924 3.94354 60.0903 3.45167 60.288C2.9598 60.4857 2.51211 60.7791 2.13463 61.1513C1.75715 61.5234 1.45741 61.9669 1.25282 62.456C1.04823 62.945 0.942871 63.4698 0.942871 63.9999C0.942871 64.53 1.04823 65.0548 1.25282 65.5439C1.45741 66.0329 1.75715 66.4764 2.13463 66.8485C2.51211 67.2207 2.9598 67.5142 3.45167 67.7118C3.94354 67.9095 4.46979 68.0074 4.99984 67.9999H84.9998C85.5299 68.0074 86.0561 67.9095 86.548 67.7118C87.0399 67.5142 87.4876 67.2207 87.8651 66.8485C88.2425 66.4764 88.5423 66.0329 88.7469 65.5439C88.9515 65.0548 89.0568 64.53 89.0568 63.9999C89.0568 63.4698 88.9515 62.945 88.7469 62.456C88.5423 61.9669 88.2425 61.5234 87.8651 61.1513C87.4876 60.7791 87.0399 60.4857 86.548 60.288C86.0561 60.0903 85.5299 59.9924 84.9998 59.9999H4.99984Z" fill="#C7CFE9"/>
</svg>
