<svg width="96" height="96" viewBox="0 0 96 96" fill="none" xmlns="http://www.w3.org/2000/svg">
<path d="M19.9608 15.961C19.1651 15.9612 18.3875 16.1987 17.7274 16.6431C17.0674 17.0876 16.5549 17.7188 16.2555 18.456C15.956 19.1933 15.8833 20.0031 16.0465 20.7819C16.2097 21.5607 16.6015 22.2732 17.1717 22.8282L42.3436 48L17.1717 73.1719C16.7878 73.5405 16.4813 73.982 16.2702 74.4705C16.0591 74.959 15.9475 75.4847 15.9421 76.0169C15.9367 76.549 16.0375 77.0769 16.2387 77.5696C16.4398 78.0624 16.7373 78.51 17.1136 78.8863C17.4899 79.2626 17.9375 79.5601 18.4302 79.7612C18.9229 79.9624 19.4508 80.0632 19.983 80.0578C20.5152 80.0524 21.0409 79.9408 21.5294 79.7297C22.0179 79.5185 22.4594 79.212 22.828 78.8282L47.9998 53.6563L73.1717 78.8282C73.5403 79.2121 73.9818 79.5185 74.4703 79.7297C74.9588 79.9408 75.4845 80.0524 76.0167 80.0578C76.5489 80.0632 77.0768 79.9624 77.5695 79.7612C78.0622 79.5601 78.5098 79.2626 78.8861 78.8863C79.2624 78.51 79.5599 78.0624 79.761 77.5697C79.9622 77.077 80.063 76.5491 80.0576 76.0169C80.0522 75.4847 79.9407 74.959 79.7295 74.4705C79.5184 73.982 79.2119 73.5405 78.828 73.1719L53.6561 48L78.828 22.8282C79.406 22.2663 79.8008 21.5429 79.9606 20.7529C80.1204 19.9628 80.0379 19.1428 79.7237 18.4005C79.4095 17.6582 78.8784 17.028 78.2 16.5927C77.5216 16.1574 76.7275 15.9372 75.9217 15.961C74.8825 15.9919 73.8962 16.4262 73.1717 17.1719L47.9998 42.3438L22.828 17.1719C22.4552 16.7887 22.0094 16.4841 21.517 16.2762C21.0245 16.0682 20.4954 15.961 19.9608 15.961Z" fill="#C7CFE9"/>
</svg>
